#!OML:ASF H:\Terrain\Patient Classification 1\Animal2\Wednesday\Animal2.ASF
:FULLY-SPECIFIED
:DEGREES
835
root 7.95985 16.5597 -21.213 25.8708 -5.69161 1.73469
lowerback 21.0909 -5.88491 -1.42677
upperback 9.83608 -7.76 1.14181
thorax -0.646071 -3.91826 3.61733
lowerneck 6.6594 11.4847 16.142
upperneck -1.95906 16.3771 -28.023
head 2.19297 8.7159 -11.115
rclavicle 2.8625e-014 1.74931e-014
rhumerus 35.7454 -25.8318 -61.3791
rradius 145.425
rwrist -54.2107
rhand 35.0435 37.1603
rfingers 7.12502
rthumb 58.175 21.597
lclavicle 2.8625e-014 1.74931e-014
lhumerus 74.1407 -24.2656 6.35693
lradius 96.5197
lwrist -5.74681
lhand -5.73903 12.1565
lfingers 7.12502
lthumb 20.0832 41.1386
rfemur -53.7215 0.167018 -3.28431
rtibia 44.0944
rfoot -18.1787 -4.10897
rtoes -25.2219
lfemur -38.8448 5.89922 0.294922
ltibia 38.9799
lfoot -16.7662 3.57798
ltoes -36.3109
836
root 7.90409 16.5596 -21.1911 25.9581 -5.7626 1.97018
lowerback 21.1358 -6.04195 -1.37599
upperback 9.80061 -7.94558 1.28913
thorax -0.677098 -4.01114 3.78848
lowerneck 6.9237 11.5782 16.1176
upperneck -2.05967 16.5185 -28.4133
head 2.19035 8.81945 -11.2561
rclavicle -1.20066e-013 3.73715e-014
rhumerus 36.1539 -25.5065 -61.6709
rradius 145.247
rwrist -54.1562
rhand 35.5401 37.6999
rfingers 7.12502
rthumb 58.6067 22.5356
lclavicle -1.20066e-013 3.73715e-014
lhumerus 74.0979 -26.4566 4.80874
lradius 98.6248
lwrist -10.2552
lhand -5.80884 9.44351
lfingers 7.12502
lthumb 20.0161 38.4326
rfemur -54.0085 -0.000619358 -3.27505
rtibia 44.5378
rfoot -18.3705 -4.06137
rtoes -25.6356
lfemur -38.7249 5.90345 0.188924
ltibia 38.7
lfoot -16.3549 3.68682
ltoes -36.2341
837
root 7.85339 16.5651 -21.1664 26.105 -5.6138 1.99679
lowerback 21.152 -6.27405 -0.921292
upperback 9.7805 -8.15088 1.47808
thorax -0.725601 -4.10116 3.78359
lowerneck 6.89969 11.6838 16.1074
upperneck -1.92623 16.6907 -28.6025
head 2.29162 8.90274 -11.2969
rclavicle 0 2.14687e-014
rhumerus 36.4229 -25.1971 -61.7252
rradius 145.129
rwrist -54.07
rhand 35.7372 38.0855
rfingers 7.12502
rthumb 58.7776 23.0829
lclavicle 0 2.14687e-014
lhumerus 74.0189 -28.9026 3.51383
lradius 100.571
lwrist -14.1584
lhand -5.59745 7.90552
lfingers 7.12502
lthumb 20.2193 36.8732
rfemur -54.2349 -0.132721 -3.02322
rtibia 44.9403
rfoot -18.6233 -4.10118
rtoes -24.937
lfemur -38.736 5.90631 0.346738
ltibia 38.4362
lfoot -15.9039 3.87991
ltoes -36.4383
838
root 7.79953 16.5761 -21.1399 26.193 -5.60261 2.13713
lowerback 21.0932 -6.40614 -0.549859
upperback 9.8219 -8.24883 1.57675
thorax -0.681203 -4.14098 3.69479
lowerneck 6.69134 11.7224 16.1145
upperneck -1.63334 16.7816 -28.6175
head 2.43356 8.9208 -11.2711
rclavicle 3.18055e-014 -5.56597e-015
rhumerus 36.7847 -25.1198 -61.8038
rradius 145.059
rwrist -54.0951
rhand 35.9752 37.9549
rfingers 7.12502
rthumb 58.9834 23.15
lclavicle 3.18055e-014 -5.56597e-015
lhumerus 74.2422 -31.2282 2.01846
lradius 102.343
lwrist -17.0586
lhand -5.09811 7.05826
lfingers 7.12502
lthumb 20.6991 35.9744
rfemur -54.4151 -0.088759 -2.97469
rtibia 45.3033
rfoot -18.7619 -4.42332
rtoes -25.2519
lfemur -38.6424 5.8492 0.375187
ltibia 38.1931
lfoot -15.4217 3.97027
ltoes -36.5727
839
root 7.74542 16.5858 -21.1105 26.2247 -5.71099 2.48162
lowerback 20.919 -6.48024 -0.34204
upperback 9.92858 -8.31032 1.55612
thorax -0.507579 -4.16739 3.54335
lowerneck 6.54239 11.7458 16.3322
upperneck -1.49007 16.8566 -28.7871
head 2.55679 8.94594 -11.3447
rclavicle 1.98785e-014 -1.59028e-015
rhumerus 37.132 -25.208 -62.0441
rradius 145.012
rwrist -54.1794
rhand 36.2297 37.5995
rfingers 7.12502
rthumb 59.2032 23.0091
lclavicle 1.98785e-014 -1.59028e-015
lhumerus 74.6258 -33.3029 0.283213
lradius 103.861
lwrist -18.7077
lhand -5.2874 6.05727
lfingers 7.12502
lthumb 20.5173 34.9931
rfemur -54.5397 -0.0968911 -3.16458
rtibia 45.6325
rfoot -18.874 -4.59433
rtoes -25.801
lfemur -38.4695 5.76295 0.139986
ltibia 37.9485
lfoot -14.7685 4.13349
ltoes -37.4564
840
root 7.69417 16.5912 -21.0828 26.2842 -5.73479 2.67493
lowerback 20.7825 -6.61563 -0.0410609
upperback 10.0018 -8.43101 1.61294
thorax -0.386314 -4.22055 3.44139
lowerneck 6.73792 11.8181 16.5225
upperneck -1.6427 16.9764 -29.0566
head 2.55663 9.03456 -11.4759
rclavicle -9.38264e-014 3.81667e-014
rhumerus 37.3691 -25.1892 -62.2285
rradius 144.982
rwrist -54.3392
rhand 36.2916 37.3863
rfingers 7.12502
rthumb 59.2566 22.8486
lclavicle -9.38264e-014 3.81667e-014
lhumerus 74.7152 -35.4695 -1.17802
lradius 105.082
lwrist -19.2195
lhand -5.24762 4.20269
lfingers 7.12502
lthumb 20.5555 33.1344
rfemur -54.6774 -0.148402 -3.1837
rtibia 45.9194
rfoot -19.0728 -4.53356
rtoes -25.5867
lfemur -38.3538 5.7499 0.070912
ltibia 37.719
lfoot -14.208 4.13107
ltoes -37.5379
841
root 7.64311 16.5956 -21.0576 26.3235 -5.84714 2.99919
lowerback 20.7536 -6.7191 0.0517735
upperback 10.0138 -8.54583 1.64363
thorax -0.360079 -4.27484 3.44121
lowerneck 6.83111 11.8555 16.7609
upperneck -1.55135 17.0844 -29.252
head 2.63653 9.09573 -11.5794
rclavicle 1.17681e-013 -6.12257e-014
rhumerus 37.3823 -25.1421 -62.324
rradius 145.073
rwrist -54.4612
rhand 36.3711 37.5218
rfingers 7.12502
rthumb 59.3251 23.052
lclavicle 1.17681e-013 -6.12257e-014
lhumerus 74.8375 -37.9787 -2.68037
lradius 105.898
lwrist -19.6695
lhand -5.33101 3.58641
lfingers 7.12502
lthumb 20.4753 32.5268
rfemur -54.7885 -0.186475 -3.38132
rtibia 46.1619
rfoot -19.263 -4.63842
rtoes -25.9539
lfemur -38.2286 5.78732 -0.172006
ltibia 37.5307
lfoot -13.759 3.84419
ltoes -36.704
842
root 7.59094 16.6049 -21.0281 26.207 -6.01411 3.61281
lowerback 20.8251 -6.74491 -0.116401
upperback 10.0512 -8.60716 1.59142
thorax -0.335003 -4.30906 3.49489
lowerneck 6.38326 11.8758 17.0782
upperneck -0.880165 17.2237 -29.1791
head 2.95975 9.09953 -11.5442
rclavicle 4.21423e-014 -5.20816e-014
rhumerus 37.2148 -25.2028 -62.3183
rradius 145.176
rwrist -54.4819
rhand 36.426 37.9236
rfingers 7.12502
rthumb 59.3724 23.5009
lclavicle 4.21423e-014 -5.20816e-014
lhumerus 75.2822 -40.6402 -4.70451
lradius 106.372
lwrist -21.0511
lhand -8.45361 7.31004
lfingers 7.12502
lthumb 17.4723 36.5448
rfemur -54.6652 -0.19476 -3.90768
rtibia 46.3559
rfoot -19.4645 -4.94244
rtoes -26.6178
lfemur -37.981 5.76836 -0.74643
ltibia 37.3761
lfoot -13.2508 3.46198
ltoes -35.7922
843
root 7.53917 16.6186 -21.0011 26.106 -6.00327 3.88117
lowerback 20.663 -6.87548 0.111342
upperback 10.1887 -8.73899 1.5827
thorax -0.131814 -4.36956 3.35712
lowerneck 6.34772 11.9323 17.1406
upperneck -0.576789 17.3505 -28.9555
head 3.06286 9.14213 -11.4502
rclavicle -2.38542e-015 -1.86858e-014
rhumerus 37.3061 -25.0667 -62.4732
rradius 145.111
rwrist -54.3525
rhand 36.448 38.1637
rfingers 7.12502
rthumb 59.3913 23.7599
lclavicle -2.38542e-015 -1.86858e-014
lhumerus 74.9789 -43.075 -5.69935
lradius 107.397
lwrist -17.1261
lhand -6.22173 8.50863
lfingers 7.12502
lthumb 19.6192 37.5387
rfemur -54.5303 -0.0617608 -4.0552
rtibia 46.5224
rfoot -19.6171 -5.0874
rtoes -26.1711
lfemur -37.7905 5.81431 -0.891967
ltibia 37.2285
lfoot -12.7016 3.05754
ltoes -34.4206
844
root 7.49309 16.6292 -20.9806 26.0214 -5.93711 4.04133
lowerback 20.7648 -6.99154 0.432895
upperback 10.1992 -8.82271 1.7067
thorax -0.192006 -4.40133 3.34205
lowerneck 6.56691 11.9473 17.1017
upperneck -0.597574 17.3849 -28.908
head 3.01723 9.17658 -11.44
rclavicle -1.47896e-013 7.83212e-014
rhumerus 37.4653 -24.8271 -62.4254
rradius 144.904
rwrist -54.023
rhand 36.3936 38.3024
rfingers 7.12502
rthumb 59.3444 23.8518
lclavicle -1.47896e-013 7.83212e-014
lhumerus 74.9315 -45.9361 -6.81471
lradius 107.682
lwrist -14.0279
lhand -3.28322 8.26161
lfingers 7.12502
lthumb 22.4421 36.9778
rfemur -54.4383 0.0840202 -4.1037
rtibia 46.6864
rfoot -19.7017 -5.15608
rtoes -25.5416
lfemur -37.6491 5.82673 -0.885348
ltibia 37.064
lfoot -12.1762 2.70963
ltoes -33.2593
